:SAMPLES-PER-SECOND 30
:FULLY-SPECIFIED
:DEGREES
562
root  -3.66966 41.033 -0.321479 143.002 -89.5024 -142.845
RightUpLeg  5.24578 -1.44149 -0.14384
RightLeg  -6.26585 -22.408 3.63335
RightFoot  1.36155 -0.113348 1.2156
RightToes  -3.10678e-008 1.75238e-005 3.56266e-009
Spine  8.32348 -0.919327 -1.90773
Spine1  -14.5817 -1.14217 3.28131
HEad  0.495377 -2.74438 5.81196
LeftShoulder1  0.74689 0.467689 -17.9694
LeftArm  -8.5859 20.2594 -56.7397
LeftForeArm  165.329 -77.4832 -136.173
LeftHand  -0.986319 -7.34593 9.32078
RightShoulder  0.931618 0.749431 15.1808
RightArm  -4.09464 34.8067 51.3942
RightForeArm  99.195 79.8531 98.1323
RightHand  -0.472659 9.41291 -4.09627
LeftUpLeg  4.77191 1.27188 2.54839
LeftLeg  -5.41367 18.7033 -1.85987
LeftFoot  1.40384 0.365423 -3.23596
LeftToes  4.7643e-008 1.47522e-008 1.32869e-009
563
root  -3.67105 41.0342 -0.344096 91.3748 -89.7226 -91.3079
RightUpLeg  5.38064 -1.54199 -0.195642
RightLeg  -6.25533 -22.741 3.71853
RightFoot  1.29691 -0.11287 1.20242
RightToes  -3.10678e-008 1.75238e-005 3.56266e-009
Spine  8.40016 -1.02881 -2.3207
Spine1  -14.544 -1.28646 3.71863
HEad  0.271852 -2.25923 5.67962
LeftShoulder1  0.728379 0.517389 -17.7429
LeftArm  -8.43933 20.0108 -56.4352
LeftForeArm  163.902 -77.7905 -134.711
LeftHand  -0.927261 -6.91346 9.07585
RightShoulder  0.919321 0.699653 15.1442
RightArm  -4.28552 33.5722 51.082
RightForeArm  98.7904 79.8667 97.6657
RightHand  -0.556742 9.03727 -4.85406
LeftUpLeg  4.85957 1.29151 2.56492
LeftLeg  -5.51802 18.2398 -1.89005
LeftFoot  1.49473 0.369419 -3.29277
LeftToes  4.7643e-008 1.47522e-008 1.32869e-009
564
root  -3.67059 41.0384 -0.36083 20.014 -89.3658 -19.948
RightUpLeg  5.48584 -1.58956 -0.163747
RightLeg  -6.40036 -23.1945 3.88277
RightFoot  1.32801 -0.111922 1.18511
RightToes  -3.10678e-008 1.75238e-005 3.56266e-009
Spine  8.46253 -1.12969 -2.77237
Spine1  -14.5532 -1.42874 4.27827
HEad  -0.266656 -2.23093 5.36441
LeftShoulder1  0.740394 0.451536 -17.6002
LeftArm  -8.46785 19.7956 -55.9839
LeftForeArm  164.369 -77.6562 -135.315
LeftHand  -0.981265 -7.38613 9.24807
RightShoulder  0.926571 0.733049 15.1405
RightArm  -4.7847 31.1303 49.632
RightForeArm  101.764 79.7659 100.876
RightHand  -0.636623 9.13546 -5.46664
LeftUpLeg  4.80986 1.32159 2.64097
LeftLeg  -5.56488 17.6875 -1.87284
LeftFoot  1.56405 0.368917 -3.27953
LeftToes  4.7643e-008 1.47522e-008 1.32869e-009
565
root  -3.66573 41.0398 -0.386667 13.4291 -88.8946 -13.3252
RightUpLeg  5.51173 -1.59217 -0.123872
RightLeg  -6.48895 -23.6783 3.9902
RightFoot  1.3207 -0.107849 1.12347
RightToes  -3.10678e-008 1.75238e-005 3.56266e-009
Spine  8.63443 -1.02787 -3.35259
Spine1  -14.7391 -1.373 4.86166
HEad  -0.664617 -2.63476 5.31881
LeftShoulder1  0.729951 0.465138 -17.3441
LeftArm  -7.84111 18.8839 -55.7776
LeftForeArm  165.396 -77.214 -137.127
LeftHand  -0.911622 -6.92467 8.92476
RightShoulder  0.863896 0.465675 15.0345
RightArm  -5.27884 27.0829 48.1066
RightForeArm  105.394 79.5791 104.952
RightHand  -0.593097 8.95624 -5.15635
LeftUpLeg  4.65158 1.38255 2.72761
LeftLeg  -5.46126 17.1501 -1.8552
LeftFoot  1.57749 0.373161 -3.34019
LeftToes  4.7643e-008 1.47522e-008 1.32869e-009
566
root  -3.63105 41.0403 -0.41503 8.79437 -88.2338 -8.5108
RightUpLeg  5.40645 -1.56593 -0.0536703
RightLeg  -6.7186 -24.3628 4.18963
RightFoot  1.36132 -0.105121 1.08784
RightToes  -3.10678e-008 1.75238e-005 3.56266e-009
Spine  8.72166 -0.969565 -3.82189
Spine1  -14.7796 -1.34917 5.23562
HEad  -1.18157 -3.41935 5.38756
LeftShoulder1  0.688047 0.643973 -17.3852
LeftArm  -6.75114 16.9861 -55.8776
LeftForeArm  166.579 -76.7047 -139.032
LeftHand  -0.938185 -6.79683 9.26055
RightShoulder  0.919185 0.658558 15.366
RightArm  -6.44592 21.3364 45.6183
RightForeArm  109.264 79.228 110.088
RightHand  -0.350801 8.53686 -3.3088
LeftUpLeg  4.1597 1.35446 2.78875
LeftLeg  -5.14175 16.5015 -1.70191
LeftFoot  1.58714 0.374373 -3.3538
LeftToes  4.7643e-008 1.47522e-008 1.32869e-009
567
root  -3.61147 41.0401 -0.447346 6.02411 -87.635 -5.66559
RightUpLeg  5.41208 -1.56263 -0.0137673
RightLeg  -6.90439 -24.9772 4.33703
RightFoot  1.36027 -0.0995491 1.01418
RightToes  -3.10678e-008 1.75238e-005 3.56266e-009
Spine  8.5057 -0.796963 -4.5891
Spine1  -14.2161 -1.25567 5.84223
HEad  -1.65985 -3.43613 5.73732
LeftShoulder1  0.701834 0.624528 -17.7234
LeftArm  -4.81609 15.0988 -56.0226
LeftForeArm  171.274 -75.5217 -143.268
LeftHand  -0.961135 -6.88432 9.41828
RightShoulder  0.986598 0.775158 16.4594
RightArm  -7.39093 14.7588 42.0433
RightForeArm  110.66 79.0074 112.478
RightHand  -0.335171 8.59176 -3.15952
LeftUpLeg  3.95457 1.35005 2.81587
LeftLeg  -5.1423 15.9487 -1.68476
LeftFoot  1.69708 0.369591 -3.2743
LeftToes  4.7643e-008 1.47522e-008 1.32869e-009
568
root  -3.57488 41.0394 -0.477106 3.90967 -86.5541 -3.47083
RightUpLeg  5.4748 -1.63589 0.00508266
RightLeg  -7.22301 -25.9836 4.66496
RightFoot  1.37719 -0.0924991 0.924685
RightToes  -3.10678e-008 1.75238e-005 3.56266e-009
Spine  8.93254 -0.673472 -5.49869
Spine1  -14.3999 -1.2169 6.69299
HEad  -2.01118 -4.96787 5.55285
LeftShoulder1  0.765502 0.372645 -17.8082
LeftArm  -1.79731 13.6696 -56.3675
LeftForeArm  175.485 -73.4175 -148.599
LeftHand  -0.959674 -6.59356 9.62018
RightShoulder  0.898307 0.314137 16.9717
RightArm  -7.6739 7.00671 39.5445
RightForeArm  110.273 79.1939 110.785
RightHand  -0.364585 8.80164 -3.36508
LeftUpLeg  3.62117 1.33689 2.86759
LeftLeg  -5.06785 14.8815 -1.61437
LeftFoot  1.84766 0.365855 -3.2114
LeftToes  4.7643e-008 1.47522e-008 1.32869e-009
569
root  -3.56613 41.0385 -0.502243 2.96039 -85.2904 -2.41187
RightUpLeg  5.58183 -1.67842 0.0607464
RightLeg  -7.61608 -27.2365 5.02948
RightFoot  1.3993 -0.0832433 0.824587
RightToes  -3.10678e-008 1.75238e-005 3.56266e-009
Spine  9.35898 -0.876796 -6.46951
Spine1  -14.5847 -1.51271 7.69547
HEad  -2.51672 -5.23613 5.36341
LeftShoulder1  0.752883 0.413872 -17.7162
LeftArm  1.61444 13.7618 -56.737
LeftForeArm  -178.912 -70.311 -154.367
LeftHand  -1.01809 -7.52655 9.48147
RightShoulder  0.824866 -0.0427466 17.3317
RightArm  -7.68816 -1.2167 37.7337
RightForeArm  107.311 79.5083 106.637
RightHand  -0.333398 9.27371 -3.02603
LeftUpLeg  3.21214 1.26023 2.88891
LeftLeg  -4.85501 13.7106 -1.43718
LeftFoot  1.90511 0.369461 -3.26315
LeftToes  4.7643e-008 1.47522e-008 1.32869e-009
570
root  -3.55825 41.0375 -0.529194 2.41486 -84.0298 -1.58655
RightUpLeg  5.41211 -1.66777 0.118289
RightLeg  -7.81346 -28.496 5.27645
RightFoot  1.3475 -0.0799507 0.795926
RightToes  -3.10678e-008 1.75238e-005 3.56266e-009
Spine  9.50208 -1.26681 -7.35744
Spine1  -14.5003 -1.99504 8.66772
HEad  -3.21726 -5.36661 4.66279
LeftShoulder1  0.676562 0.726115 -17.7054
LeftArm  5.35506 14.6181 -56.4569
LeftForeArm  -174.022 -66.8738 -158.911
LeftHand  -1.0608 -7.7367 9.72105
RightShoulder  0.686719 -0.671433 17.8047
RightArm  -7.20802 -8.60604 36.6689
RightForeArm  104.434 79.7245 102.87
RightHand  -0.361615 9.09426 -3.28655
LeftUpLeg  2.67811 1.1761 2.8967
LeftLeg  -4.78693 12.5546 -1.33784
LeftFoot  2.04158 0.368758 -3.24828
LeftToes  4.7643e-008 1.47522e-008 1.32869e-009
571
root  -3.51571 41.0369 -0.534041 1.2218 -83.185 -0.172607
RightUpLeg  5.13102 -1.74586 -0.000328814
RightLeg  -7.74155 -29.2632 5.32098
RightFoot  1.25874 -0.0857514 0.907394
RightToes  -3.10678e-008 1.75238e-005 3.56266e-009
Spine  9.53584 -1.6418 -8.31293
Spine1  -13.9185 -2.52307 9.90849
HEad  -4.49105 -5.44946 3.71135
LeftShoulder1  0.658333 0.824485 -17.9368
LeftArm  7.09724 15.838 -56.0178
LeftForeArm  -171.487 -64.293 -161.463
LeftHand  -1.11392 -8.40199 9.70892
RightShoulder  0.502978 -1.42798 17.8627
RightArm  -6.89355 -13.3166 36.8718
RightForeArm  97.8973 79.8641 97.0717
RightHand  -0.390436 8.59788 -3.60993
LeftUpLeg  2.3123 1.00566 2.74782
LeftLeg  -4.90093 11.8705 -1.33068
LeftFoot  2.2618 0.365481 -3.1939
LeftToes  4.7643e-008 1.47522e-008 1.32869e-009
